<svg xmlns="http://www.w3.org/2000/svg" viewBox="0 0 3935.42 2508.41"><defs><style>.cls-1{fill:#f07167;fill-rule:evenodd;}</style></defs><g id="Layer_2" data-name="Layer 2"><g id="Layer_1-2" data-name="Layer 1"><path class="cls-1" d="M0,2467.26a711.08,711.08,0,0,0,112.91,29.8c184.74,32.74,387.09-4.2,530.26-125.46,224.09-189.8,250.68-517.21,331.8-799.45,20.14-70.05,45.71-140.93,94.64-194.94,53-58.5,127.94-91.41,201.34-120.42,80.84-32,165.94-61.7,252.56-54.49,151.42,12.6,268.16,131.52,385.92,227.53,230.91,188.26,516.1,309.15,812,344.18,140.65,16.66,285.9,13.87,420.33-30.71,163.85-54.34,302.27-167.59,418.61-295.12,296.94-325.53,471.26-802.05,318.85-1215.46C3848.41,149.27,3806,72,3755.16,0H0Z"/></g></g></svg>