<svg id="Layer_1" data-name="Layer 1" xmlns="http://www.w3.org/2000/svg" viewBox="0 0 5333.89 2999.99"><defs><style>.cls-1{fill:#fdfcdc;}.cls-2{fill:#fed9b7;}.cls-2,.cls-3,.cls-4,.cls-5,.cls-6{fill-rule:evenodd;}.cls-3{fill:#f07167;}.cls-4{fill:#0081a7;}.cls-5{fill:#00afb9;}.cls-6{fill:none;stroke:#0081a7;stroke-miterlimit:10;stroke-width:4px;}</style></defs><rect class="cls-1" x="0.56" width="5333.33" height="2999.99"/><path class="cls-2" d="M230.47,1318.84c-76.34-6.55-153.32-10.15-230.47-10.65V3000H1210.05c67.67-123,90.59-266.39,100.93-406.82,25.68-348.71-32.39-731.08-282.46-975.47C821.2,1415.08,519.3,1343.64,230.47,1318.84Z" transform="translate(0.56)"/><path class="cls-2" d="M0,2408.56c58.73-20.75,119-37.8,179.2-52.89a3442.22,3442.22,0,0,1,936.16-101.78c344.05,10,719.63,64,1005.89-127.12,285.07-190.31,381.56-561,423.09-901.22S2601,522.6,2794.1,239.42C2856.64,147.72,2934.88,69.53,3021.35,0H0Z" transform="translate(0.56)"/><path class="cls-3" d="M0,2467.26a711.08,711.08,0,0,0,112.91,29.8c184.74,32.74,387.09-4.2,530.26-125.46,224.09-189.8,250.68-517.21,331.8-799.45,20.14-70.05,45.71-140.93,94.64-194.94,53-58.5,127.94-91.41,201.34-120.42,80.84-32,165.94-61.7,252.56-54.49,151.42,12.6,268.16,131.52,385.92,227.53,230.91,188.26,516.1,309.15,812,344.18,140.65,16.66,285.9,13.87,420.33-30.71,163.85-54.34,302.27-167.59,418.61-295.12,296.94-325.53,471.26-802.05,318.85-1215.46C3848.41,149.27,3806,72,3755.16,0H0Z" transform="translate(0.56)"/><path class="cls-4" d="M4964,348c-95.44,174.32-270.29,298.25-349.67,480.44-71.89,165-51.58,366.75,51.74,514.11C4777,1500.79,4964.62,1585.73,5149,1643.68c59.23,18.63,121.53,34.71,184.37,45.16V0H5053.74C5047.68,122.16,5022.84,240.49,4964,348Z" transform="translate(0.56)"/><path class="cls-4" d="M0,1065.35c79.43,30.13,165.33,39.7,247.48,19.21C338,1062,416.34,1005.93,487.62,945.76,645.78,812.23,785.25,650,972.25,561.22c236.78-112.38,511.6-90.06,773.46-100.94s552.11-76,696.64-294.66c33.82-51.15,57.07-107.06,73.41-165.62H0Z" transform="translate(0.56)"/><path class="cls-2" d="M5333.33,2160.63c-100.78,21.8-203.66,52-280.67,120.36-125.94,111.76-153.16,297.7-146.13,465.94,3.54,85,13.67,169.23,27.32,253.06h399.48Z" transform="translate(0.56)"/><path class="cls-5" d="M4816.54,698.93A120.77,120.77,0,1,0,4695.77,819.7,120.77,120.77,0,0,0,4816.54,698.93Z" transform="translate(0.56)"/><path class="cls-5" d="M5084.52,3000a153.32,153.32,0,0,0-295.59,0Z" transform="translate(0.56)"/><path class="cls-5" d="M1012.84,619.18A153.28,153.28,0,1,0,859.56,772.46,153.28,153.28,0,0,0,1012.84,619.18Z" transform="translate(0.56)"/><path class="cls-5" d="M5047.92,1095.44c0,180.42,120.51,332.67,285.41,380.72V714.73C5168.43,762.77,5047.92,915,5047.92,1095.44Z" transform="translate(0.56)"/><path class="cls-6" d="M0,2481.8c164.9-48.05,285.41-200.3,285.41-380.72S164.9,1768.42,0,1720.37" transform="translate(0.56)"/></svg>