<svg xmlns="http://www.w3.org/2000/svg" viewBox="0 0 5333.89 2999.99"><defs><style>.cls-1{fill:#fdfcdc;}.cls-2{fill:#fed9b7;}.cls-2,.cls-3,.cls-4,.cls-5,.cls-6{fill-rule:evenodd;}.cls-3{fill:#f07167;}.cls-4{fill:#0081a7;}.cls-5{fill:#00afb9;}.cls-6{fill:none;stroke:#0081a7;stroke-miterlimit:10;stroke-width:4px;}</style></defs><g id="Layer_2" data-name="Layer 2"><g id="Layer_1-2" data-name="Layer 1"><rect class="cls-1" x="0.56" width="5333.33" height="2999.99"/><path class="cls-2" d="M231,1318.84c-76.34-6.55-153.32-10.15-230.47-10.65V3000H1210.61c67.67-123,90.59-266.39,100.93-406.82,25.68-348.71-32.39-731.08-282.46-975.47C821.76,1415.08,519.85,1343.64,231,1318.84Z"/><path class="cls-2" d="M.56,2408.56c58.73-20.75,119-37.8,179.2-52.89a3442.22,3442.22,0,0,1,936.16-101.78c344,10,719.63,64,1005.89-127.12,285.07-190.31,381.56-561,423.09-901.22s56.66-702.95,249.76-986.13C2857.19,147.72,2935.44,69.53,3021.91,0H.56Z"/><path class="cls-3" d="M.56,2467.26a711.08,711.08,0,0,0,112.91,29.8c184.74,32.74,387.09-4.2,530.26-125.46,224.09-189.8,250.68-517.21,331.8-799.45,20.14-70.05,45.71-140.93,94.64-194.94,53-58.5,127.94-91.41,201.34-120.42,80.84-32,165.94-61.7,252.56-54.49,151.42,12.6,268.16,131.52,385.92,227.53,230.91,188.26,516.1,309.15,812,344.18,140.65,16.66,285.9,13.87,420.33-30.71,163.85-54.34,302.27-167.59,418.61-295.12,296.94-325.53,471.26-802.05,318.85-1215.46C3849,149.27,3806.51,72,3755.72,0H.56Z"/><path class="cls-4" d="M4964.53,348c-95.44,174.32-270.29,298.25-349.67,480.44-71.89,165-51.58,366.75,51.74,514.11,110.94,158.22,298.58,243.16,482.91,301.11,59.24,18.63,121.54,34.71,184.38,45.16V0H5054.3C5048.24,122.16,5023.4,240.49,4964.53,348Z"/><path class="cls-4" d="M.56,1065.35c79.43,30.13,165.33,39.7,247.48,19.21,90.51-22.58,168.85-78.63,240.14-138.8C646.34,812.23,785.81,650,972.81,561.22c236.78-112.38,511.6-90.06,773.46-100.94s552.11-76,696.64-294.66C2476.73,114.47,2500,58.56,2516.32,0H.56Z"/><path class="cls-2" d="M5333.89,2160.63c-100.78,21.8-203.66,52-280.67,120.36-125.95,111.76-153.16,297.7-146.14,465.94,3.55,85,13.68,169.23,27.33,253.06h399.48Z"/><path class="cls-5" d="M4817.1,698.93A120.77,120.77,0,1,0,4696.33,819.7,120.77,120.77,0,0,0,4817.1,698.93Z"/><path class="cls-5" d="M5085.08,3000a153.32,153.32,0,0,0-295.59,0Z"/><path class="cls-5" d="M1013.4,619.18A153.28,153.28,0,1,0,860.12,772.46,153.28,153.28,0,0,0,1013.4,619.18Z"/><path class="cls-5" d="M5048.48,1095.44c0,180.42,120.51,332.67,285.41,380.72V714.73C5169,762.77,5048.48,915,5048.48,1095.44Z"/><path class="cls-6" d="M.56,2481.8C165.46,2433.75,286,2281.5,286,2101.08S165.46,1768.42.56,1720.37"/></g></g></svg>